<?xml version="1.0" encoding="utf-8"?>
<!-- Svg Vector Icons : http://www.onlinewebfonts.com/icon -->
<!DOCTYPE svg PUBLIC "-//W3C//DTD SVG 1.1//EN" "http://www.w3.org/Graphics/SVG/1.1/DTD/svg11.dtd">
<svg version="1.1" xmlns="http://www.w3.org/2000/svg" xmlns:xlink="http://www.w3.org/1999/xlink" x="0px" y="0px" viewBox="0 0 256 256" enable-background="new 0 0 256 256" xml:space="preserve">
<metadata> Svg Vector Icons : http://www.onlinewebfonts.com/icon </metadata>
<g><g><path fill="#000000" d="M173.4,255.1H82.6c-25.4,0-45.4-20-45.4-45.4V73.5c0-5.4,3.6-9.1,9.1-9.1s9.1,3.6,9.1,9.1v136.2c0,14.5,12.7,27.2,27.2,27.2h90.8c14.5,0,27.2-12.7,27.2-27.2V73.5c0-5.4,3.6-9.1,9.1-9.1c5.4,0,9.1,3.6,9.1,9.1v136.2C218.8,235.1,198.8,255.1,173.4,255.1z"/><path fill="#000000" d="M100.8,209.7c-5.4,0-9.1-3.6-9.1-9.1V91.7c0-5.4,3.6-9.1,9.1-9.1c5.4,0,9.1,3.6,9.1,9.1v108.9C109.8,206.1,106.2,209.7,100.8,209.7z"/><path fill="#000000" d="M155.2,209.7c-5.4,0-9.1-3.6-9.1-9.1V91.7c0-5.4,3.6-9.1,9.1-9.1c5.4,0,9.1,3.6,9.1,9.1v108.9C164.3,206.1,160.7,209.7,155.2,209.7z"/><path fill="#000000" d="M236.9,55.4h-72.6V28.2c0-5.4-3.6-9.1-9.1-9.1h-54.5c-5.4,0-9.1,3.6-9.1,9.1v27.2H19.1c-5.4,0-9.1-3.6-9.1-9.1c0-5.4,3.6-9.1,9.1-9.1h54.5v-9.1c0-14.5,12.7-27.2,27.2-27.2h54.5c14.5,0,27.2,12.7,27.2,27.2v9.1h54.5c5.4,0,9.1,3.6,9.1,9.1C246,51.8,242.4,55.4,236.9,55.4z"/></g></g>
</svg>